<?xml version="1.0" standalone="no"?>
<!DOCTYPE svg PUBLIC "-//W3C//DTD SVG 20010904//EN"
 "http://www.w3.org/TR/2001/REC-SVG-20010904/DTD/svg10.dtd">
<svg version="1.0" xmlns="http://www.w3.org/2000/svg"
 width="120.000000pt" height="120.000000pt" viewBox="0 0 120.000000 120.000000"
 preserveAspectRatio="xMidYMid meet">

<g transform="translate(0.000000,120.000000) scale(0.100000,-0.100000)"
fill="#000000" stroke="none">
<path d="M0 600 l0 -600 600 0 600 0 0 600 0 600 -600 0 -600 0 0 -600z m407
334 c-3 -3 -12 -4 -19 -1 -8 3 -5 6 6 6 11 1 17 -2 13 -5z m89 -10 c43 -18 58
-34 44 -48 -5 -5 -20 0 -36 13 -15 11 -32 21 -39 21 -7 0 -15 7 -19 15 -7 19
2 19 50 -1z m-56 -19 c0 -8 -2 -15 -4 -15 -2 0 -6 7 -10 15 -3 8 -1 15 4 15 6
0 10 -7 10 -15z m-149 -37 c-28 -25 -54 -77 -47 -93 3 -8 -4 -24 -14 -37 l-19
-23 -1 28 c0 16 4 26 10 22 6 -4 7 5 4 23 -4 19 -1 34 10 45 9 8 16 19 16 23
0 16 33 42 46 37 12 -5 11 -9 -5 -25z m382 -4 c3 -3 -3 -20 -14 -37 -25 -42
-25 -67 1 -67 31 0 27 -46 -5 -54 -25 -6 -25 -7 -9 -44 9 -20 18 -43 21 -49 3
-8 -3 -13 -16 -13 -12 0 -21 3 -22 8 -2 25 -9 46 -21 65 -36 57 24 232 65 191z
m287 -4 c0 -5 0 -12 0 -15 0 -3 9 -14 21 -26 13 -13 18 -27 14 -40 -4 -11 -2
-19 4 -19 6 0 11 -12 11 -26 0 -14 -4 -23 -9 -20 -5 4 -12 0 -15 -6 -3 -7 -3
2 0 21 4 23 3 31 -5 27 -6 -4 -9 -2 -6 6 3 7 -4 31 -15 53 -22 44 -24 55 -10
55 6 0 10 -4 10 -10z m154 -115 c4 -14 4 -30 1 -35 -12 -20 -23 -9 -27 25 -5
41 16 49 26 10z m-868 -60 c0 -35 -9 -45 -21 -24 -8 12 2 59 13 59 4 0 7 -16
8 -35z m-134 -36 c-4 -39 -7 -43 -21 -34 -12 7 -15 58 -4 69 15 15 28 -3 25
-35z m881 11 c-3 -11 -12 -20 -20 -20 -8 0 -12 3 -10 8 2 4 7 15 10 25 9 24
27 12 20 -13z m-706 -32 c-3 -7 -5 -2 -5 12 0 14 2 19 5 13 2 -7 2 -19 0 -25z
m620 -10 c-3 -8 -6 -5 -6 6 -1 11 2 17 5 13 3 -3 4 -12 1 -19z m20 -55 c-3
-10 -5 -4 -5 12 0 17 2 24 5 18 2 -7 2 -21 0 -30z m210 21 c7 -18 -12 -64 -27
-64 -5 0 -10 18 -10 40 0 29 4 40 15 40 9 0 18 -7 22 -16z m-597 -14 c0 -5 -5
-10 -11 -10 -5 0 -7 5 -4 10 3 6 8 10 11 10 2 0 4 -4 4 -10z m-420 -79 c0 -11
3 -26 6 -35 3 -9 1 -16 -5 -16 -14 0 -34 48 -25 61 9 16 24 10 24 -10z m330
-65 c0 -17 -14 -29 -23 -20 -8 8 3 34 14 34 5 0 9 -6 9 -14z m347 -16 c-4 -18
-2 -30 4 -30 19 0 2 -90 -24 -129 -28 -42 -104 -88 -119 -73 -7 7 -2 12 11 17
30 9 79 53 96 85 14 26 15 39 15 108 0 33 6 52 17 52 3 0 3 -13 0 -30z m-345
-50 c3 -16 1 -30 -3 -30 -4 0 -3 -13 2 -29 12 -35 74 -101 94 -101 8 0 15 -7
15 -15 0 -18 -23 -11 -67 21 -36 27 -77 88 -70 107 2 6 0 20 -5 30 -6 12 -5
23 3 33 18 21 26 17 31 -16z m181 -197 c-7 -2 -21 -2 -30 0 -10 3 -4 5 12 5
17 0 24 -2 18 -5z"/>
</g>
</svg>
